<svg xmlns="http://www.w3.org/2000/svg" width="186" height="59.687" viewBox="0 0 186 59.687">
  <g id="logo" transform="translate(12 8)">
    <g id="Group_179759" data-name="Group 179759" transform="translate(-12 -8)">
      <g id="Group_179377" data-name="Group 179377" transform="translate(0)">
        <g id="Group_179371" data-name="Group 179371" transform="translate(37.085 0.34)">
          <path id="Path_102831" data-name="Path 102831" d="M61.376,19.742H61.37a17.2,17.2,0,0,0,0,34.4h.006a17.2,17.2,0,0,0,0-34.4Z" transform="translate(-44.172 -3.314)" fill="#6a8bff"/>
          <path id="Path_102832" data-name="Path 102832" d="M85.059,7.461a7.351,7.351,0,1,0,5.148,2.181A7.354,7.354,0,0,0,85.059,7.461Z" transform="translate(-49.238 -1.464)" fill="#6a8bff"/>
          <path id="Path_102833" data-name="Path 102833" d="M96.5.4a3.154,3.154,0,1,0,2.228.922A3.15,3.15,0,0,0,96.5.4Z" transform="translate(-51.582 -0.4)" fill="#6a8bff"/>
        </g>
        <g id="Group_179374" data-name="Group 179374">
          <g id="Group_179373" data-name="Group 179373">
            <path id="Path_102834" data-name="Path 102834" d="M18.221,25.691c2.617,0,4.565.574,5.789,1.708s1.835,3.12,1.835,5.915v20.86h6.825V31.849c0-4.247-1.049-7.44-3.119-9.484s-5.318-3.081-9.653-3.081a24.057,24.057,0,0,0-7.03,1.026,33.331,33.331,0,0,0-6.635,2.965l-.325.184L5.24,20.123H0v34H6.828V29.489l.129-.079a25.686,25.686,0,0,1,6.477-3.057A19.694,19.694,0,0,1,18.221,25.691Z" transform="translate(0 -3.421)" fill="#25212b"/>
            <path id="Path_102835" data-name="Path 102835" d="M175.379,0h-6.828V50.7h6.828Z" transform="translate(-26.67)" fill="#25212b"/>
            <path id="Path_102836" data-name="Path 102836" d="M112.3,20.272,102.081,45.8,94.9,27.873H87.522l10.745,26.4h7.417l13.839-34Z" transform="translate(-13.955 -3.57)" fill="#25212b"/>
            <path id="Path_102837" data-name="Path 102837" d="M217.192,55.968c.012-.015.027-.031.04-.047l.04-.049c.012-.015.021-.032.034-.049a.429.429,0,0,0,.034-.051.487.487,0,0,0,.034-.05l.027-.053.027-.053c.006-.018.015-.037.021-.056a.414.414,0,0,0,.021-.056l.018-.056.015-.058a.4.4,0,0,0,.015-.058l.009-.06a.414.414,0,0,0,.006-.061.144.144,0,0,1,.009-.061.209.209,0,0,0,0-.062V54.96a.149.149,0,0,0-.009-.063.431.431,0,0,1-.009-.06l-.009-.06a.363.363,0,0,0-.015-.058l-.018-.057a.425.425,0,0,1-.018-.055c-.009-.018-.015-.037-.024-.054a.482.482,0,0,0-.027-.052l-.027-.052-.034-.049a.307.307,0,0,0-.034-.049l-.037-.047-.04-.047-.043-.044c-.015-.016-.034-.031-.049-.046l-.055-.044a.638.638,0,0,0-.055-.041c-.018-.012-.037-.024-.058-.037s-.04-.024-.061-.035-.04-.021-.061-.031l-.064-.029-.067-.026-.07-.021c-.021-.008-.046-.014-.07-.021l-.076-.016-.073-.014-.079-.011-.079-.007c-.031,0-.058,0-.089-.005h-1.655V57.8h.574V56.428h.669l.076.085.073.085.076.085.07.085.073.085.076.084.073.086.073.085.076.085.073.085.076.085.073.086.073.084.073.085.073.085.076.085h.763l-.076-.085-.082-.085-.076-.089-.076-.085-.079-.085-.076-.085-.076-.085L217.1,57.1l-.076-.085-.076-.084-.076-.085-.082-.089-.076-.085-.076-.085-.079-.086-.076-.085.049-.013.052-.016.046-.017.049-.018.046-.021.046-.022.046-.023.043-.024.043-.027c.015-.008.027-.018.043-.027s.024-.02.04-.031a.274.274,0,0,0,.04-.031.251.251,0,0,0,.037-.033l.043-.034.034-.037Zm-.223-.85v.037l-.006.036-.006.035-.009.034-.009.034-.012.033-.009.033-.015.031-.018.032-.015.031-.021.03-.018.029-.024.028-.021.028-.027.027-.027.027-.031.028-.037.023-.031.024-.034.023-.037.02-.037.019-.037.018-.037.015-.04.014-.04.011-.043.009-.043.009-.043.007-.046,0h-1.084V54.4h1.105l.055,0,.052.007a.318.318,0,0,1,.046.008l.049.01.046.011.046.014.043.015.04.017.037.019.037.021.034.022a.215.215,0,0,1,.037.024l.031.026.027.027.027.025.018.026.021.024.018.027.018.027.015.027.009.03.015.029.009.031.009.031.006.032v.14Z" transform="translate(-33.933 -8.53)" fill="#25212b"/>
            <path id="Path_102838" data-name="Path 102838" d="M215.6,51.716a3.894,3.894,0,0,0-.391.02c-.128.012-.257.033-.385.058s-.247.057-.369.1a3.538,3.538,0,0,0-.351.13,3.5,3.5,0,0,0-.342.163,3.01,3.01,0,0,0-.318.193c-.1.069-.2.144-.3.222a3.66,3.66,0,0,0-.272.249,2.929,2.929,0,0,0-.25.274c-.079.1-.153.194-.223.3a3.374,3.374,0,0,0-.192.318,3.227,3.227,0,0,0-.162.34c-.049.118-.092.232-.131.353a3.7,3.7,0,0,0-.095.37c-.027.125-.043.254-.058.382a3.324,3.324,0,0,0-.021.393,3.364,3.364,0,0,0,.021.394,3.265,3.265,0,0,0,.058.382,3.629,3.629,0,0,0,.095.369c.04.12.085.238.131.353a3.109,3.109,0,0,0,.162.339,2.957,2.957,0,0,0,.192.318c.07.1.144.2.223.3a3.256,3.256,0,0,0,.25.275,3.652,3.652,0,0,0,.272.248c.1.079.192.153.3.222s.211.134.318.194a3.68,3.68,0,0,0,.342.162,3.741,3.741,0,0,0,.351.13c.122.038.247.069.369.1s.257.045.385.059.26.019.391.019.263-.007.4-.019.253-.034.379-.059a3.64,3.64,0,0,0,.37-.1,3.446,3.446,0,0,0,.351-.13,3.344,3.344,0,0,0,.342-.162,2.849,2.849,0,0,0,.318-.194c.1-.069.2-.144.3-.222s.183-.161.272-.248a3.222,3.222,0,0,0,.247-.275c.079-.1.153-.193.223-.3a3.291,3.291,0,0,0,.192-.318,3.236,3.236,0,0,0,.165-.339c.049-.118.092-.234.128-.353a3.8,3.8,0,0,0,.1-.369,4.012,4.012,0,0,0,0-1.55,3.7,3.7,0,0,0-.1-.37c-.037-.121-.082-.238-.128-.353a3.241,3.241,0,0,0-.165-.34,3.024,3.024,0,0,0-.192-.318c-.07-.1-.143-.2-.223-.3a3.1,3.1,0,0,0-.247-.274c-.089-.088-.18-.17-.272-.249s-.2-.153-.3-.222-.208-.134-.318-.193a3.193,3.193,0,0,0-.342-.163,3.273,3.273,0,0,0-.351-.13,3.636,3.636,0,0,0-.37-.1c-.125-.025-.253-.044-.379-.058A3.8,3.8,0,0,0,215.6,51.716ZM218.8,55.57c0,.109-.006.218-.015.326s-.031.212-.049.317-.049.205-.079.305-.067.2-.107.294-.086.188-.134.279-.1.179-.162.263a2.023,2.023,0,0,1-.186.246,2.8,2.8,0,0,1-.2.227,3.026,3.026,0,0,1-.226.206,2.74,2.74,0,0,1-.247.185,2.459,2.459,0,0,1-.263.16c-.092.05-.183.094-.278.134a2.992,2.992,0,0,1-.3.108,2.915,2.915,0,0,1-.3.078,3.044,3.044,0,0,1-.318.05c-.107.01-.214.016-.327.016s-.217-.006-.327-.016a3.4,3.4,0,0,1-.62-.127c-.1-.031-.2-.067-.3-.108a2.738,2.738,0,0,1-.278-.134c-.089-.05-.177-.1-.263-.16a2.74,2.74,0,0,1-.247-.185,3.02,3.02,0,0,1-.226-.206,2.736,2.736,0,0,1-.2-.227,2.783,2.783,0,0,1-.186-.246c-.058-.085-.11-.169-.162-.263s-.092-.185-.134-.279-.073-.194-.1-.294-.058-.2-.082-.305-.037-.21-.046-.317a2.907,2.907,0,0,1,0-.652c.009-.108.027-.214.046-.318a3.7,3.7,0,0,1,.186-.6c.043-.1.086-.189.134-.279s.1-.178.162-.263a2.484,2.484,0,0,1,.186-.246c.061-.075.134-.154.2-.227s.147-.141.226-.206.162-.127.247-.185a2.449,2.449,0,0,1,.263-.16c.095-.049.183-.093.278-.134s.2-.076.3-.108a2.788,2.788,0,0,1,.305-.078,2.983,2.983,0,0,1,.315-.048,3.117,3.117,0,0,1,.653,0,3.04,3.04,0,0,1,.318.048q.156.032.3.078c.1.031.2.068.3.108s.189.085.278.134.18.1.263.16a2.741,2.741,0,0,1,.247.185c.076.066.153.134.226.206a3.588,3.588,0,0,1,.391.473c.058.086.11.17.162.263s.095.183.134.279a3.42,3.42,0,0,1,.186.6c.018.1.037.21.049.318S218.8,55.46,218.8,55.57Z" transform="translate(-33.512 -8.308)" fill="#25212b"/>
            <path id="Path_102839" data-name="Path 102839" d="M157.281,54.185V33.314c0-3.987-.634-6.965-1.881-8.859a10.024,10.024,0,0,0-5.541-4.026,33.357,33.357,0,0,0-9.709-1.142A49.162,49.162,0,0,0,127.512,20.9V27.52a36.687,36.687,0,0,1,12.075-1.971c4.15,0,7.023.586,8.544,1.742,1.5,1.14,2.257,3.312,2.257,6.448v.542l-.3-.031a110.139,110.139,0,0,0-11.558-.713c-5.53,0-9.522.823-11.864,2.446-2.37,1.645-3.573,4.449-3.573,8.336,0,3.737,1.041,6.531,3.092,8.316s5.29,2.671,9.664,2.671a29.038,29.038,0,0,0,15.007-4.368l.325-.194.751,3.436Zm-6.893-9.457-.13.08a34.221,34.221,0,0,1-6.46,3.2,19.378,19.378,0,0,1-6.4,1.042,10.167,10.167,0,0,1-5.6-1.222,4.162,4.162,0,0,1-1.751-3.725,3.763,3.763,0,0,1,1.741-3.472c1.2-.744,3.483-1.122,6.8-1.122a103.651,103.651,0,0,1,11.545.718l.243.026Z" transform="translate(-19.642 -3.42)" fill="#25212b"/>
            <path id="Path_102840" data-name="Path 102840" d="M194.209,53.334c-1.124,2.856-3.084,7.814-3.945,9.922h7.231l17.28-42.987h-7.219l-9.735,24.421L187.735,20.272H180.3l13.949,32.961Z" transform="translate(-28.774 -3.57)" fill="#25212b"/>
          </g>
        </g>
      </g>
    </g>
  </g>
</svg>
