<svg xmlns="http://www.w3.org/2000/svg" width="19.75" height="19.879" viewBox="0 0 19.75 19.879">
  <g id="Icono_fineTunning" transform="translate(0.625 0.625)">
    <path id="Path_103109" data-name="Path 103109" d="M4,10A2,2,0,1,0,6,8a2,2,0,0,0-2,2" transform="translate(-4 -4)" fill="none" stroke="#25212b" stroke-linecap="round" stroke-linejoin="round" stroke-width="1.25"/>
    <path id="Path_103110" data-name="Path 103110" d="M6,4V8" transform="translate(-4 -4)" fill="none" stroke="#25212b" stroke-linecap="round" stroke-linejoin="round" stroke-width="1.25"/>
    <path id="Path_103111" data-name="Path 103111" d="M6,12v8" transform="translate(-4 -4)" fill="none" stroke="#25212b" stroke-linecap="round" stroke-linejoin="round" stroke-width="1.25"/>
    <path id="Path_103112" data-name="Path 103112" d="M13.879,15.312a2,2,0,1,0-2.26,2.652" transform="translate(-4 -4)" fill="none" stroke="#25212b" stroke-linecap="round" stroke-linejoin="round" stroke-width="1.25"/>
    <path id="Path_103113" data-name="Path 103113" d="M12,4V14" transform="translate(-4 -4)" fill="none" stroke="#25212b" stroke-linecap="round" stroke-linejoin="round" stroke-width="1.25"/>
    <path id="Path_103114" data-name="Path 103114" d="M16,7a2,2,0,1,0,2-2,2,2,0,0,0-2,2" transform="translate(-4 -4)" fill="none" stroke="#25212b" stroke-linecap="round" stroke-linejoin="round" stroke-width="1.25"/>
    <path id="Path_103115" data-name="Path 103115" d="M18,4V5" transform="translate(-4 -4)" fill="none" stroke="#25212b" stroke-linecap="round" stroke-linejoin="round" stroke-width="1.25"/>
    <path id="Path_103116" data-name="Path 103116" d="M18,9v2.5" transform="translate(-4 -4)" fill="none" stroke="#25212b" stroke-linecap="round" stroke-linejoin="round" stroke-width="1.25"/>
    <path id="Path_103117" data-name="Path 103117" d="M19,22.5A4.75,4.75,0,0,1,22.5,19,4.75,4.75,0,0,1,19,15.5,4.75,4.75,0,0,1,15.5,19,4.75,4.75,0,0,1,19,22.5" transform="translate(-4 -4)" fill="none" stroke="#25212b" stroke-linecap="round" stroke-linejoin="round" stroke-width="1.25"/>
  </g>
</svg>
