<svg xmlns="http://www.w3.org/2000/svg" width="20.75" height="20.75" viewBox="0 0 20.75 20.75">
  <g id="Icono_Automatización" transform="translate(0.875 0.875)">
    <path id="Path_102967" data-name="Path 102967" d="M13,20.693a1.73,1.73,0,0,1-2.675-1.01,1.724,1.724,0,0,0-2.573-1.066,1.725,1.725,0,0,1-2.37-2.37,1.724,1.724,0,0,0-1.065-2.572,1.724,1.724,0,0,1,0-3.35A1.724,1.724,0,0,0,5.383,7.752a1.725,1.725,0,0,1,2.37-2.37,1.723,1.723,0,0,0,2.572-1.065,1.724,1.724,0,0,1,3.35,0,1.724,1.724,0,0,0,2.573,1.066,1.725,1.725,0,0,1,2.37,2.37,1.724,1.724,0,0,0,1.065,2.572,1.731,1.731,0,0,1,.674,3.03" transform="translate(-3 -3)" fill="none" stroke="#2a437c" stroke-linecap="round" stroke-linejoin="round" stroke-width="1.75"/>
    <path id="Path_102968" data-name="Path 102968" d="M9,12a3,3,0,1,0,3-3,3,3,0,0,0-3,3" transform="translate(-3 -3)" fill="none" stroke="#2a437c" stroke-linecap="round" stroke-linejoin="round" stroke-width="1.75"/>
    <path id="Path_102969" data-name="Path 102969" d="M17,22l5-3-5-3Z" transform="translate(-3 -3)" fill="none" stroke="#2a437c" stroke-linecap="round" stroke-linejoin="round" stroke-width="1.75"/>
  </g>
</svg>
