<svg xmlns="http://www.w3.org/2000/svg" width="17.25" height="19.25" viewBox="0 0 17.25 19.25">
  <g id="Icono_BaseDatos" transform="translate(0.625 0.625)">
    <path id="Path_102927" data-name="Path 102927" d="M12,6,4,6c0,1.657,3.582,3,8,3s8-1.343,8-3-3.582-3-8-3S4,4.343,4,6" transform="translate(-4 -3)" fill="none" stroke="#25212b" stroke-linecap="round" stroke-linejoin="round" stroke-width="1.25"/>
    <path id="Path_102928" data-name="Path 102928" d="M4,6v6c0,1.657,3.582,3,8,3s8-1.343,8-3V6" transform="translate(-4 -3)" fill="none" stroke="#25212b" stroke-linecap="round" stroke-linejoin="round" stroke-width="1.25"/>
    <path id="Path_102929" data-name="Path 102929" d="M4,12v6c0,1.657,3.582,3,8,3s8-1.343,8-3V12" transform="translate(-4 -3)" fill="none" stroke="#25212b" stroke-linecap="round" stroke-linejoin="round" stroke-width="1.25"/>
  </g>
</svg>
