<svg xmlns="http://www.w3.org/2000/svg" width="19.25" height="19.255" viewBox="0 0 19.25 19.255">
  <g id="Icono_Usuarios" transform="translate(0.625 0.63)">
    <path id="Path_102943" data-name="Path 102943" d="M9,7,5,7A4,4,0,1,0,9,3,4,4,0,0,0,5,7" transform="translate(-3 -3)" fill="none" stroke="#25212b" stroke-linecap="round" stroke-linejoin="round" stroke-width="1.25"/>
    <path id="Path_102944" data-name="Path 102944" d="M3,21V19a4,4,0,0,1,4-4h4a4,4,0,0,1,4,4v2" transform="translate(-3 -3)" fill="none" stroke="#25212b" stroke-linecap="round" stroke-linejoin="round" stroke-width="1.25"/>
    <path id="Path_102945" data-name="Path 102945" d="M16,3.13a4,4,0,0,1,0,7.75" transform="translate(-3 -3)" fill="none" stroke="#25212b" stroke-linecap="round" stroke-linejoin="round" stroke-width="1.25"/>
    <path id="Path_102946" data-name="Path 102946" d="M21,21V19a4,4,0,0,0-3-3.85" transform="translate(-3 -3)" fill="none" stroke="#25212b" stroke-linecap="round" stroke-linejoin="round" stroke-width="1.25"/>
  </g>
</svg>
